<?xml version="1.0" encoding="UTF-8" standalone="no"?><!DOCTYPE svg PUBLIC "-//W3C//DTD SVG 1.1//EN" "http://www.w3.org/Graphics/SVG/1.1/DTD/svg11.dtd"><svg width="100%" height="100%" viewBox="0 0 71 71" version="1.1" xmlns="http://www.w3.org/2000/svg" xmlns:xlink="http://www.w3.org/1999/xlink" xml:space="preserve" xmlns:serif="http://www.serif.com/" style="fill-rule:evenodd;clip-rule:evenodd;stroke-linejoin:round;stroke-miterlimit:2;"><path d="M35.417,70.833c-10.112,0 -18.543,-1.428 -25.293,-4.283c-6.749,-2.855 -10.124,-6.422 -10.124,-10.701l0,-41.266c0,-4.022 3.456,-7.458 10.369,-10.308c6.912,-2.85 15.262,-4.275 25.048,-4.275c9.786,0 18.135,1.425 25.048,4.275c6.913,2.85 10.369,6.286 10.369,10.308l0,41.266c0,4.279 -3.375,7.846 -10.124,10.701c-6.75,2.856 -15.181,4.283 -25.293,4.283Zm0,-48.093c6.074,0 12.189,-0.859 18.346,-2.576c6.156,-1.717 9.723,-3.57 10.701,-5.557c-0.951,-2.04 -4.481,-3.943 -10.59,-5.709c-6.108,-1.765 -12.261,-2.648 -18.457,-2.648c-6.186,0 -12.317,0.859 -18.394,2.576c-6.076,1.717 -9.654,3.591 -10.733,5.621c1.053,2.083 4.604,3.986 10.653,5.709c6.05,1.723 12.208,2.584 18.474,2.584Zm0,20.849c2.89,0 5.703,-0.139 8.438,-0.417c2.735,-0.278 5.348,-0.684 7.841,-1.218c2.492,-0.534 4.825,-1.197 6.999,-1.987c2.051,-0.745 3.914,-1.584 5.589,-2.515c0.185,-0.104 0.3,-0.299 0.3,-0.512c0,-1.832 0,-10.494 0,-13.45c-0.002,-0.205 -0.111,-0.395 -0.287,-0.5c-0.177,-0.105 -0.396,-0.109 -0.577,-0.012c-1.528,0.806 -3.203,1.542 -5.026,2.205c-2.174,0.79 -4.507,1.452 -6.999,1.986c-2.492,0.535 -5.106,0.941 -7.841,1.219c-2.735,0.278 -5.547,0.417 -8.438,0.417c-2.943,0 -5.81,-0.146 -8.602,-0.438c-2.791,-0.291 -5.426,-0.703 -7.904,-1.237c-2.478,-0.534 -4.787,-1.19 -6.927,-1.967c-1.778,-0.646 -3.399,-1.369 -4.862,-2.168c-0.181,-0.101 -0.403,-0.099 -0.582,0.006c-0.179,0.105 -0.289,0.297 -0.289,0.505c-0.001,2.975 -0.001,11.626 -0.001,13.44c-0,0.209 0.111,0.403 0.292,0.508c1.611,0.929 3.425,1.76 5.442,2.493c2.14,0.777 4.449,1.433 6.927,1.967c2.478,0.535 5.113,0.948 7.904,1.239c2.792,0.291 5.659,0.436 8.602,0.436Zm0,20.994c3.381,0 6.701,-0.223 9.96,-0.669c3.258,-0.447 6.223,-1.056 8.894,-1.827c2.671,-0.772 4.924,-1.668 6.758,-2.689c1.764,-0.98 2.927,-2.008 3.489,-3.082c0.042,-0.082 0.064,-0.174 0.064,-0.266c0.001,-1.112 0.001,-8.764 0.001,-11.526c-0.002,-0.206 -0.111,-0.395 -0.288,-0.5c-0.177,-0.105 -0.396,-0.109 -0.577,-0.012c-1.528,0.806 -3.203,1.542 -5.026,2.205c-2.174,0.791 -4.507,1.453 -6.999,1.987c-2.492,0.534 -5.106,0.94 -7.841,1.218c-2.735,0.278 -5.547,0.417 -8.438,0.417c-2.943,0 -5.81,-0.145 -8.602,-0.436c-2.791,-0.291 -5.426,-0.704 -7.904,-1.239c-2.478,-0.534 -4.787,-1.19 -6.927,-1.967c-1.778,-0.646 -3.399,-1.369 -4.862,-2.168c-0.181,-0.101 -0.403,-0.099 -0.582,0.006c-0.179,0.105 -0.289,0.297 -0.289,0.505c-0.001,2.789 -0.001,10.475 -0.001,11.576c-0.001,0.091 0.02,0.181 0.06,0.263c0.563,1.098 1.716,2.122 3.461,3.071c1.813,0.985 4.055,1.864 6.726,2.636c2.672,0.772 5.647,1.381 8.927,1.827c3.28,0.446 6.61,0.669 9.992,0.669Z" style="fill:#1a1a1a;fill-rule:nonzero;"/></svg>