<?xml version="1.0" encoding="UTF-8" standalone="no"?><!DOCTYPE svg PUBLIC "-//W3C//DTD SVG 1.1//EN" "http://www.w3.org/Graphics/SVG/1.1/DTD/svg11.dtd"><svg width="100%" height="100%" viewBox="0 0 80 80" version="1.1" xmlns="http://www.w3.org/2000/svg" xmlns:xlink="http://www.w3.org/1999/xlink" xml:space="preserve" xmlns:serif="http://www.serif.com/" style="fill-rule:evenodd;clip-rule:evenodd;stroke-linejoin:round;stroke-miterlimit:2;"><path d="M31.25,56.33c6.944,0 12.847,-2.434 17.708,-7.303c4.861,-4.869 7.292,-10.782 7.292,-17.737c0,-6.956 -2.431,-12.868 -7.292,-17.736c-4.861,-4.869 -10.764,-7.303 -17.708,-7.303c-6.944,0 -12.847,2.434 -17.708,7.303c-4.861,4.869 -7.292,10.781 -7.292,17.736c0,6.956 2.431,12.868 7.292,17.737c4.861,4.869 10.764,7.303 17.708,7.303Zm-2.365,-13.422c-0.42,-0 -0.76,-0.34 -0.76,-0.76c0,-3.896 0,-21.587 0,-25.482c0,-0.42 0.34,-0.76 0.76,-0.76c1.202,-0 3.528,-0 4.729,-0c0.42,0 0.76,0.34 0.76,0.76c-0,3.896 -0,21.587 -0,25.482c-0,0.42 -0.34,0.76 -0.76,0.76c-1.202,0 -3.528,0 -4.729,0Zm-14.262,0c-0.42,-0 -0.76,-0.34 -0.76,-0.76c0,-3.041 0,-14.308 0,-17.349c-0,-0.42 0.34,-0.76 0.76,-0.76c1.202,-0 3.528,-0 4.729,-0c0.42,0 0.76,0.34 0.76,0.76c-0,3.041 -0,14.308 -0,17.349c0,0.42 -0.34,0.76 -0.76,0.76c-1.202,0 -3.528,0 -4.729,0Zm28.525,0c-0.42,-0 -0.76,-0.34 -0.76,-0.76c0,-2.541 0,-10.721 0,-13.263c-0,-0.42 0.34,-0.76 0.76,-0.76c1.202,-0 3.528,-0 4.729,-0c0.42,0 0.76,0.34 0.76,0.76c-0,2.541 -0,10.721 -0,13.263c0,0.42 -0.34,0.76 -0.76,0.76c-1.202,0 -3.528,0 -4.729,0Zm32.205,35.716c-0.142,0.144 -0.336,0.225 -0.538,0.225c-0.202,0 -0.396,-0.08 -0.539,-0.223c-3.531,-3.531 -23.186,-23.186 -23.186,-23.186c-2.714,2.222 -5.756,3.954 -9.125,5.196c-3.369,1.242 -6.941,1.864 -10.715,1.864c-8.724,0 -16.113,-3.027 -22.168,-9.08c-6.055,-6.053 -9.082,-13.441 -9.082,-22.164c0,-8.722 3.027,-16.112 9.08,-22.17c6.053,-6.058 13.441,-9.086 22.164,-9.086c8.722,0 16.112,3.027 22.17,9.082c6.058,6.055 9.086,13.444 9.086,22.168c0,3.774 -0.621,7.345 -1.864,10.715c-1.242,3.369 -2.974,6.398 -5.196,9.085c-0,0 19.672,19.672 23.191,23.191c0.296,0.296 0.297,0.776 0.002,1.073c-0.835,0.843 -2.443,2.465 -3.281,3.311Z" style="fill:#1a1a1a;fill-rule:nonzero;"/></svg>